<?xml version="1.0" encoding="utf-8"?>
<!-- Generator: Adobe Illustrator 17.1.0, SVG Export Plug-In . SVG Version: 6.00 Build 0)  -->
<!DOCTYPE svg PUBLIC "-//W3C//DTD SVG 1.1//EN" "http://www.w3.org/Graphics/SVG/1.1/DTD/svg11.dtd">
<svg version="1.1" id="Layer_1" xmlns="http://www.w3.org/2000/svg" xmlns:xlink="http://www.w3.org/1999/xlink" x="0px" y="0px"
	 viewBox="0 0 400 400" enable-background="new 0 0 400 400" xml:space="preserve">
<rect x="21.8" y="36.4" display="none" fill="#11AA44" width="349.2" height="300.3"/>
<rect x="-39.3" y="103.9" display="none" fill="none" stroke="#77FF33" stroke-opacity="0.2" width="113.5" height="97.6"/>
<g>
	<g id="group1">
		<rect x="-48" y="96.4" fill="none" stroke="#77FF33" stroke-opacity="0.2" width="131" height="112.6"/>
		<rect x="-30.6" y="111.5" fill="none" stroke="#77FF33" stroke-opacity="0.2" width="96" height="82.6"/>
		<rect x="-21.8" y="119" fill="none" stroke="#77FF33" stroke-opacity="0.2" width="78.6" height="67.6"/>
		<rect x="-13.1" y="126.5" fill="none" stroke="#77FF33" stroke-opacity="0.2" width="61.1" height="52.6"/>
		<rect x="-4.4" y="134" fill="none" stroke="#77FF33" stroke-opacity="0.2" width="43.7" height="37.5"/>
		<rect x="4.4" y="141.5" fill="none" stroke="#77FF33" stroke-opacity="0.2" width="26.2" height="22.5"/>
	</g>
	<rect x="13.1" y="149" fill="none" stroke="#77FF33" stroke-opacity="0.2" width="8.7" height="7.5"/>
	<rect x="21.8" y="36.4" fill="none" stroke="#77FF33" stroke-opacity="0.2" width="61.1" height="52.6"/>
	<rect x="30.6" y="43.9" fill="none" stroke="#77FF33" stroke-opacity="0.2" width="43.7" height="37.5"/>
	<rect x="39.3" y="51.4" fill="none" stroke="#77FF33" stroke-opacity="0.2" width="26.2" height="22.5"/>
	<rect x="48" y="58.9" fill="none" stroke="#77FF33" stroke-opacity="0.2" width="8.7" height="7.5"/>
	<g id="group_2">
		<rect x="91.7" y="36.4" fill="none" stroke="#77FF33" stroke-opacity="0.2" width="131" height="112.6"/>
		<rect x="100.4" y="43.9" fill="none" stroke="#77FF33" stroke-opacity="0.2" width="113.5" height="97.6"/>
		<rect x="109.1" y="51.4" fill="none" stroke="#77FF33" stroke-opacity="0.2" width="96" height="82.6"/>
		<rect x="117.9" y="58.9" fill="none" stroke="#77FF33" stroke-opacity="0.2" width="78.6" height="67.6"/>
		<rect x="126.6" y="66.4" fill="none" stroke="#77FF33" stroke-opacity="0.2" width="61.1" height="52.6"/>
		<rect x="135.3" y="73.9" fill="none" stroke="#77FF33" stroke-opacity="0.2" width="43.7" height="37.5"/>
		<rect x="144" y="81.4" fill="none" stroke="#77FF33" stroke-opacity="0.2" width="26.2" height="22.5"/>
		<rect x="152.8" y="88.9" fill="none" stroke="#77FF33" stroke-opacity="0.2" width="8.7" height="7.5"/>
	</g>
	<rect x="91.7" y="156.5" fill="none" stroke="#77FF33" stroke-opacity="0.2" width="61.1" height="52.6"/>
	<rect x="100.4" y="164" fill="none" stroke="#77FF33" stroke-opacity="0.2" width="43.7" height="37.5"/>
	<rect x="109.1" y="171.5" fill="none" stroke="#77FF33" stroke-opacity="0.2" width="26.2" height="22.5"/>
	<rect x="117.9" y="179" fill="none" stroke="#77FF33" stroke-opacity="0.2" width="8.7" height="7.5"/>
	<rect x="231.3" y="-23.7" fill="none" stroke="#77FF33" stroke-opacity="0.2" width="131" height="112.6"/>
	<rect x="240.1" y="-16.2" fill="none" stroke="#77FF33" stroke-opacity="0.2" width="113.5" height="97.6"/>
	<rect x="248.8" y="-8.7" fill="none" stroke="#77FF33" stroke-opacity="0.2" width="96" height="82.6"/>
	<rect x="257.5" y="-1.2" fill="none" stroke="#77FF33" stroke-opacity="0.2" width="78.6" height="67.6"/>
	<rect x="266.3" y="6.3" fill="none" stroke="#77FF33" stroke-opacity="0.2" width="61.1" height="52.6"/>
	<rect x="275" y="13.8" fill="none" stroke="#77FF33" stroke-opacity="0.2" width="43.7" height="37.5"/>
	<rect x="283.7" y="21.4" fill="none" stroke="#77FF33" stroke-opacity="0.2" width="26.2" height="22.5"/>
	<rect x="292.5" y="28.9" fill="none" stroke="#77FF33" stroke-opacity="0.2" width="8.7" height="7.5"/>
	<rect x="231.3" y="96.4" fill="none" stroke="#77FF33" stroke-opacity="0.2" width="61.1" height="52.6"/>
	<rect x="240.1" y="103.9" fill="none" stroke="#77FF33" stroke-opacity="0.2" width="43.7" height="37.5"/>
	<rect x="248.8" y="111.5" fill="none" stroke="#77FF33" stroke-opacity="0.2" width="26.2" height="22.5"/>
	<rect x="257.5" y="119" fill="none" stroke="#77FF33" stroke-opacity="0.2" width="8.7" height="7.5"/>
	<g id="group_5">
		<rect x="21.8" y="216.6" fill="none" stroke="#77FF33" stroke-opacity="0.2" width="131" height="112.6"/>
		<rect x="30.6" y="224.1" fill="none" stroke="#77FF33" stroke-opacity="0.2" width="113.5" height="97.6"/>
		<rect x="39.3" y="231.6" fill="none" stroke="#77FF33" stroke-opacity="0.2" width="96" height="82.6"/>
		<rect x="48" y="239.1" fill="none" stroke="#77FF33" stroke-opacity="0.2" width="78.6" height="67.6"/>
		<rect x="56.7" y="246.6" fill="none" stroke="#77FF33" stroke-opacity="0.2" width="61.1" height="52.6"/>
		<rect x="65.5" y="254.1" fill="none" stroke="#77FF33" stroke-opacity="0.2" width="43.7" height="37.5"/>
		<rect x="74.2" y="261.6" fill="none" stroke="#77FF33" stroke-opacity="0.2" width="26.2" height="22.5"/>
		<rect x="82.9" y="269.1" fill="none" stroke="#77FF33" stroke-opacity="0.2" width="8.7" height="7.5"/>
	</g>
	<rect x="371" y="216.6" fill="none" stroke="#77FF33" stroke-opacity="0.2" width="131" height="112.6"/>
	<rect x="91.7" y="336.7" fill="none" stroke="#77FF33" stroke-opacity="0.2" width="131" height="112.6"/>
	<g id="group_6">
		<rect x="161.5" y="156.5" fill="none" stroke="#77FF33" stroke-opacity="0.2" width="131" height="112.6"/>
		<rect x="170.2" y="164" fill="none" stroke="#77FF33" stroke-opacity="0.2" width="113.5" height="97.6"/>
		<rect x="179" y="171.5" fill="none" stroke="#77FF33" stroke-opacity="0.2" width="96" height="82.6"/>
		<rect x="187.7" y="179" fill="none" stroke="#77FF33" stroke-opacity="0.2" width="78.6" height="67.6"/>
		<rect x="196.4" y="186.5" fill="none" stroke="#77FF33" stroke-opacity="0.2" width="61.1" height="52.6"/>
		<rect x="205.2" y="194" fill="none" stroke="#77FF33" stroke-opacity="0.2" width="43.7" height="37.5"/>
		<rect x="213.9" y="201.5" fill="none" stroke="#77FF33" stroke-opacity="0.2" width="26.2" height="22.5"/>
		<rect x="222.6" y="209.1" fill="none" stroke="#77FF33" stroke-opacity="0.2" width="8.7" height="7.5"/>
	</g>
	<rect x="161.5" y="276.6" fill="none" stroke="#77FF33" stroke-opacity="0.2" width="61.1" height="52.6"/>
	<rect x="170.2" y="284.1" fill="none" stroke="#77FF33" stroke-opacity="0.2" width="43.7" height="37.5"/>
	<rect x="179" y="291.6" fill="none" stroke="#77FF33" stroke-opacity="0.2" width="26.2" height="22.5"/>
	<rect x="187.7" y="299.2" fill="none" stroke="#77FF33" stroke-opacity="0.2" width="8.7" height="7.5"/>
	<g id="group_4">
		<rect x="231.3" y="276.6" fill="none" stroke="#77FF33" stroke-opacity="0.2" width="131" height="112.6"/>
		<rect x="240.1" y="284.1" fill="none" stroke="#77FF33" stroke-opacity="0.2" width="113.5" height="97.6"/>
		<rect x="248.8" y="291.6" fill="none" stroke="#77FF33" stroke-opacity="0.2" width="96" height="82.6"/>
		<rect x="257.5" y="299.2" fill="none" stroke="#77FF33" stroke-opacity="0.2" width="78.6" height="67.6"/>
		<rect x="266.3" y="306.7" fill="none" stroke="#77FF33" stroke-opacity="0.2" width="61.1" height="52.6"/>
		<rect x="275" y="314.2" fill="none" stroke="#77FF33" stroke-opacity="0.2" width="43.7" height="37.5"/>
	</g>
	<rect x="283.7" y="321.7" fill="none" stroke="#77FF33" stroke-opacity="0.2" width="26.2" height="22.5"/>
	<rect x="292.5" y="329.2" fill="none" stroke="#77FF33" stroke-opacity="0.2" width="8.7" height="7.5"/>
	<g id="group_3">
		<rect x="301.2" y="96.4" fill="none" stroke="#77FF33" stroke-opacity="0.2" width="131" height="112.6"/>
		<rect x="309.9" y="103.9" fill="none" stroke="#77FF33" stroke-opacity="0.2" width="113.5" height="97.6"/>
		<rect x="318.7" y="111.5" fill="none" stroke="#77FF33" stroke-opacity="0.2" width="96" height="82.6"/>
		<rect x="327.4" y="119" fill="none" stroke="#77FF33" stroke-opacity="0.2" width="78.6" height="67.6"/>
		<rect x="336.1" y="126.5" fill="none" stroke="#77FF33" stroke-opacity="0.2" width="61.1" height="52.6"/>
		<rect x="344.8" y="134" fill="none" stroke="#77FF33" stroke-opacity="0.2" width="43.7" height="37.5"/>
		<rect x="353.6" y="141.5" fill="none" stroke="#77FF33" stroke-opacity="0.2" width="26.2" height="22.5"/>
		<rect x="362.3" y="149" fill="none" stroke="#77FF33" stroke-opacity="0.2" width="8.7" height="7.5"/>
	</g>
	<rect x="301.2" y="216.6" fill="none" stroke="#77FF33" stroke-opacity="0.2" width="61.1" height="52.6"/>
	<rect x="309.9" y="224.1" fill="none" stroke="#77FF33" stroke-opacity="0.2" width="43.7" height="37.5"/>
	<rect x="318.7" y="231.6" fill="none" stroke="#77FF33" stroke-opacity="0.2" width="26.2" height="22.5"/>
	<rect x="327.4" y="239.1" fill="none" stroke="#77FF33" stroke-opacity="0.2" width="8.7" height="7.5"/>
	<rect x="371" y="336.7" fill="none" stroke="#77FF33" stroke-opacity="0.2" width="61.1" height="52.6"/>
	<rect x="371" y="36.4" fill="none" stroke="#77FF33" stroke-opacity="0.2" width="61.1" height="52.6"/>
	<rect x="21.8" y="336.7" fill="none" stroke="#77FF33" stroke-opacity="0.2" width="61.1" height="52.6"/>
</g>
</svg>
